<svg xmlns="http://www.w3.org/2000/svg" viewBox="0 0 256 256">
  <rect width="256" height="256" fill="#1e88e5"/>
  <rect x="60" y="80" width="136" height="96" rx="8" fill="#ffffff"/>
  <rect x="60" y="80" width="136" height="32" rx="8" fill="#0d47a1"/>
  <rect x="60" y="112" width="136" height="64" fill="#ffffff"/>
  <circle cx="100" cy="96" r="6" fill="#4caf50"/>
  <circle cx="120" cy="96" r="6" fill="#4caf50"/>
  <circle cx="140" cy="96" r="6" fill="#4caf50"/>
  <rect x="76" y="132" width="48" height="28" rx="4" fill="#e3f2fd"/>
  <rect x="132" y="132" width="48" height="28" rx="4" fill="#e3f2fd"/>
  <path d="M 160 190 L 170 190 L 175 210 L 155 210 Z" fill="#4caf50"/>
  <path d="M 180 190 L 190 190 L 195 210 L 175 210 Z" fill="#4caf50"/>
  <circle cx="162" cy="218" r="6" fill="#2e7d32"/>
  <circle cx="188" cy="218" r="6" fill="#2e7d32"/>
  <path d="M 155 190 L 195 190 L 200 210 L 150 210 Z" fill="none" stroke="#2e7d32" stroke-width="3"/>
</svg>